<svg xmlns="http://www.w3.org/2000/svg" version="1.1" xmlns:xlink="http://www.w3.org/1999/xlink" xmlns:svgjs="http://svgjs.dev/svgjs" width="1000" height="750" viewBox="0 0 1000 750"><rect width="1000" height="750" fill="#8d021f"></rect><g transform="matrix(0.834,0,0,0.834,82.49454545454546,115.4193570850203)"><svg viewBox="0 0 396 247" data-background-color="#8d021f" preserveAspectRatio="xMidYMid meet" height="623" width="1000" xmlns="http://www.w3.org/2000/svg" xmlns:xlink="http://www.w3.org/1999/xlink"><g id="tight-bounds" transform="matrix(1,0,0,1,0.2400000000000091,-0.09999999999999432)"><svg viewBox="0 0 395.52 247.2" height="247.2" width="395.52"><g><svg></svg></g><g><svg viewBox="0 0 395.52 247.2" height="247.2" width="395.52"><g transform="matrix(1,0,0,1,137.94926037735848,47.215199999999996)"><svg viewBox="0 0 119.621479245283 152.7696" height="152.7696" width="119.621479245283"><g><svg viewBox="0 0 119.621479245283 152.7696" height="152.7696" width="119.621479245283"><g><svg viewBox="0 0 119.621479245283 152.7696" height="152.7696" width="119.621479245283"><g><svg viewBox="0 0 119.621479245283 152.7696" height="152.7696" width="119.621479245283"><g id="textblocktransform"><svg viewBox="0 0 119.621479245283 152.7696" height="152.7696" width="119.621479245283" id="textblock"><g><svg viewBox="0 0 119.621479245283 152.7696" height="152.7696" width="119.621479245283"><g transform="matrix(1,0,0,1,0,0)"><svg width="119.621479245283" viewBox="4.400000095367432 -37.099998474121094 29.05000114440918 37.099998474121094" height="152.7696" data-palette-color="#ffffff"><path d="M29.1-37.1L32.9-37.1Q33.45-37.1 33.45-36.45L33.45-36.45 33.45-0.65Q33.45-0.35 33.25-0.18 33.05 0 32.7 0L32.7 0 29.45 0Q29.1 0 28.85-0.08 28.6-0.15 28.35-0.5L28.35-0.5 10.1-26.7Q9.85-27.05 9.7-27 9.55-26.95 9.55-26.65L9.55-26.65 9.55-0.7Q9.55 0 8.75 0L8.75 0 5.2 0Q4.4 0 4.4-0.7L4.4-0.7 4.4-36.35Q4.4-37.1 5.15-37.1L5.15-37.1 9.05-37.1Q9.45-37.1 9.68-37 9.9-36.9 10.15-36.5L10.15-36.5 27.65-11.15Q27.95-10.75 28.18-10.83 28.4-10.9 28.4-11.25L28.4-11.25 28.4-36.4Q28.4-37.1 29.1-37.1L29.1-37.1Z" opacity="1" transform="matrix(1,0,0,1,0,0)" fill="#ffffff" class="wordmark-text-0" data-fill-palette-color="primary" id="text-0"></path></svg></g></svg></g></svg></g></svg></g></svg></g></svg></g></svg></g><path d="M75.269 41.215L75.269 0 322.469 0 322.469 247.2 75.269 247.2 75.269 205.985 89.046 205.985 89.046 233.423 308.693 233.423 308.693 13.777 89.046 13.777 89.046 41.215Z" fill="#ffffff" stroke="transparent" data-fill-palette-color="primary"></path></svg></g><defs></defs></svg><rect width="395.52" height="247.2" fill="none" stroke="none" visibility="hidden"></rect></g></svg></g></svg>